<svg xmlns="http://www.w3.org/2000/svg" width="120" height="120" viewBox="0 0 120 120">
  <defs>
    <pattern id="nodes" width="120" height="120" patternUnits="userSpaceOnUse">
      <circle cx="20" cy="24" r="2" fill="#ffffff" opacity="0.22"/>
      <circle cx="48" cy="18" r="1.5" fill="#ffffff" opacity="0.18"/>
      <circle cx="72" cy="32" r="2" fill="#ffffff" opacity="0.2"/>
      <circle cx="98" cy="22" r="1.5" fill="#ffffff" opacity="0.18"/>
      <circle cx="32" cy="58" r="2" fill="#ffffff" opacity="0.2"/>
      <circle cx="60" cy="52" r="1.5" fill="#ffffff" opacity="0.22"/>
      <circle cx="88" cy="64" r="2" fill="#ffffff" opacity="0.18"/>
      <circle cx="18" cy="88" r="1.5" fill="#ffffff" opacity="0.2"/>
      <circle cx="50" cy="96" r="2" fill="#ffffff" opacity="0.2"/>
      <circle cx="78" cy="82" r="1.5" fill="#ffffff" opacity="0.18"/>
      <circle cx="104" cy="94" r="2" fill="#ffffff" opacity="0.22"/>
      <path d="M20 24 L48 18 M48 18 L72 32 M72 32 L98 22 M32 58 L60 52 M60 52 L88 64 M18 88 L50 96 M50 96 L78 82" stroke="#ffffff" stroke-width="0.6" fill="none" opacity="0.14"/>
      <path d="M20 24 L32 58 M72 32 L60 52 M88 64 L104 94" stroke="#ffffff" stroke-width="0.5" fill="none" opacity="0.12"/>
    </pattern>
  </defs>
  <rect width="100%" height="100%" fill="url(#nodes)"/>
</svg>
