<svg enable-background="new 56.695 62.834 498.57 513.332" height="513.332" viewBox="56.695 62.834 498.57 513.332" width="498.57" xmlns="http://www.w3.org/2000/svg"><g fill="#787b7e"><path d="m498.182 228.749c.521 4.624 1.219 9.232 1.471 13.872.023 2.47-.24 4.935-.787 7.344-.857 5.713-5.283 10.232-10.979 11.208-4.303.738-8.723-.334-12.209-2.963-.492-.373-.873-.875-1.102-1.45l-.541-1.765c-1.281-11.146-5.887-21.65-13.219-30.142-1.422-.332-1.279.771-1.398 1.572-.869 7.403-1.027 14.872-.477 22.305.578 10.542.473 21.11-.316 31.638-.189 2.779-.607 5.539-1.248 8.252-.912 2.883-3.992 4.481-6.875 3.568-.52-.164-1.01-.404-1.457-.713-3.188-2.035-5.418-5.271-6.18-8.977-1.719-6.578-2.078-13.438-1.055-20.16 2.146-10.391 1.254-21.181-2.57-31.08-5.719 2.766-5.922 2.962-10.486 10.02.869 3.917 1.828 7.797 2.584 11.726.604 3.454-.848 6.945-3.719 8.958-3.641 2.963-8.113 4.722-12.799 5.031-1.232.148-2.479-.123-3.535-.771-2.434-1.356-4.588-3.161-6.348-5.32-4.07-5.293-5.035-12.347-2.535-18.54 1.881-4.611 4.57-8.849 7.945-12.512 4.627-4.627 8.182-10.213 10.412-16.365.434-.821.668-1.732.688-2.66-.338-1.118-.854-2.174-1.525-3.128l-.787-.458c-7.902-2.405-16.488-.333-22.424 5.414-1.168 1.119-1.453 2.875-.703 4.307 1.77 2.583 2.4 5.778 1.746 8.84-1.02 3.305-3.938 4.684-5.977 6.936-.666.655-1.418 1.214-2.236 1.663-5.125 3.533-12.145 2.243-15.678-2.881-.549-.798-.994-1.663-1.322-2.575-2.113-5.203-3.145-10.781-3.031-16.396.281-3.75 1.678-7.33 4.006-10.282 1.385-2.04 2.871-4.02 4.188-6.105.67-1.43.053-3.131-1.377-3.801-.039-.018-.078-.036-.119-.053-3.883-1.119-7.805-2.055-11.658-3.219-2.668-.801-5.273-1.813-7.857-2.825-4.439-1.819-7.393-6.083-7.533-10.879-.42-4.358.395-8.746 2.352-12.664.641-1.408 1.723-2.568 3.082-3.305 4.111-2.252 8.793-3.246 13.465-2.857 4.633.605 8.471 2.009 9.439 7.328.318 1.929 1.881 3.41 3.822 3.627 4.594.604 9.219.936 13.85 1.239.924-.104 1.812-.408 2.607-.892 1.371-.804 2.09-2.381 1.799-3.943-.455-2.478-1.887-4.667-3.977-6.075-4.199-3.174-8.463-6.256-12.729-9.339-4.359-2.952-8.164-6.65-11.236-10.925-4.104-7.14-1.645-16.257 5.496-20.362 1.264-.726 2.625-1.263 4.045-1.594 2.607-.417 5.236-.703 7.873-.857 1.057-.949 1.143-2.574.193-3.63-.01-.01-.02-.021-.029-.031-.855-1.652-1.828-3.243-2.908-4.76-2.93-3.718-4.037-8.554-3.021-13.177.301-2.151.74-4.282 1.314-6.377.66-2.119 2.301-3.79 4.406-4.488 1.768-.774 3.828-.343 5.137 1.073 1.152 1.435 2.096 3.027 2.795 4.73 2.18 5.823 5.484 11.158 9.73 15.7 1.43 2.099 4.289 2.642 6.389 1.213.086-.059.17-.121.254-.186 4.172-2.236 7.986-5.077 11.324-8.431-.43-1.783-.809-3.581-1.32-5.334-.695-2.372-1.396-4.76-2.307-7.067-2.064-5.685-.746-12.049 3.408-16.444.525-.767 1.264-1.363 2.123-1.714 3.838-1.216 7.746-2.197 11.703-2.938 3.523-.528 6.811 1.901 7.338 5.425.008.054.016.107.021.161.398 2.452.506 4.943.316 7.42-.445 5.603.512 11.228 2.789 16.366 1.051 2.522 1.934 5.122 2.803 7.466 2.16.367 2.523-.951 2.877-2.024.779-2.373 1.293-4.806 2.141-7.147.615-1.752 1.453-3.418 2.492-4.958 3.076-4.786 9.449-6.171 14.234-3.094.17.109.336.223.5.342 6.977 5.032 10.396 8.704 5.02 18.889-2.158 3.763-4.646 7.327-7.436 10.649-2.082 3.127-3.059 6.862-2.771 10.608-.227 2.888 1.01 5.697 3.293 7.479.734-.619 1.625-1.027 2.033-1.722 2.479-4.307 4.902-8.629 7.238-13.025 1.947-3.891 4.457-7.474 7.445-10.634 2.115-2.321 5.15-3.588 8.289-3.46 1.246.045 2.484-.02 3.725.06 6.697.299 12.496 4.747 14.521 11.138 2.521 5.383 3.225 11.442 1.994 17.259-.619 1.95.961 3.4 3.211 3.581 4.639.367 9.295.65 13.924 1.074 8.068 1.312 15.273 5.802 20.008 12.466 1.57 1.906 1.299 4.723-.607 6.292-.129.106-.264.205-.402.296-2.744 2.024-5.568 3.944-8.381 5.863-3.645 2.444-8.025 3.54-12.393 3.098-7.434-.49-14.883-.681-22.326-1.073-2.816-.243-5.615.644-7.781 2.464-.633.558-.971 1.379-.912 2.221.426.802 1.168 1.388 2.047 1.617 1.188.301 2.42.409 3.643.317 4.957-.245 9.92-.408 14.854-.922 5.955-.304 11.826 1.511 16.568 5.123 6.396 3.807 9.094 11.689 6.365 18.616l-.553 1.798c-1.219 6.644-6.607 11.728-13.312 12.557-4.238 1.046-8.658 1.145-12.941.288-2.727-.543-5.463-1.074-8.221-1.541-1.102-.183-2.189 1.617-1.713 2.674l.311.865c3.348 5.627 8.236 10.179 14.09 13.116 6.402 2.274 11.494 7.23 13.938 13.569-.211 1.102-.438 2.629-.801 4.11-.664 2.659-.68 5.803-3.664 7.147-4.121 2.417-9.191 2.555-13.439.367-6.195-3.565-11.811-8.057-16.648-13.321-1.215-1.376-2.621-2.584-3.928-3.868-.562-4.34-2.629-8.345-5.84-11.318-4.234-4.53-9.076-8.452-14.387-11.655-.635-.367-1.646-.045-2.787-.045.529 3.11 1.309 6.173 2.324 9.16 1.107 2.21 2.574 4.222 4.338 5.955 1.174 1.427 2.641 2.586 4.301 3.399 3.969 1.653 8.117 2.942 12.195 4.358zm-22.424-91.289c-2.266 1.632-4.57 3.204-6.754 4.912-6.59 5.167-13.109 10.411-19.707 15.545-2.35 2.272-6.033 2.416-8.553.333-5.768-4.734-10.609-10.492-14.287-16.984-4.572-7.356-4.141-16.769 1.086-23.676l1.676-2.236c1.594-2.343.982-5.533-1.359-7.124-.855-.58-1.863-.889-2.896-.886-1.541-.124-3.084.217-4.428.979-4.871 2.794-8.74 7.05-11.061 12.164.555 5.292 2.432 10.36 5.459 14.736 2.949 4.353 5.523 8.962 8.523 13.283 1.916 2.846 3.033 6.155 3.234 9.581.27 3.052.061 6.149.061 8.87-.703.8-1.012 1.469-1.52 1.713-9.234 4.483-19.246 7.151-29.488 7.858-1.549.063-3.1-.048-4.623-.332-3.672-.514-7.344-1.057-10.994-1.713-2.754-.449-5.482-1.044-8.174-1.783-2.525-.412-4.578-2.261-5.252-4.729-.498-1.885-2.289-3.129-4.23-2.938-1.238-.042-2.479.044-3.701.257-1.605.137-2.947 1.278-3.34 2.841-.461 2.097-.625 4.249-.488 6.392.201 1.214.941 2.271 2.018 2.872 8.416 4.118 17.838 5.732 27.146 4.651 2.76-.458 5.484-1.099 8.16-1.919 4.777-1.463 9.83-1.81 14.764-1.012 5.828.827 11.59 2.069 17.242 3.717 3.729.978 6.451 4.173 6.83 8.009 1.555 6.06 1.078 12.463-1.354 18.228-.363.863-.568 1.784-.604 2.72-.912 5.229-3.289 10.092-6.855 14.023-3.959 4.746-7.275 9.988-11.4 14.659-3.158 4.029-3.65 9.54-1.256 14.064.877 2.433 3.168 4.07 5.754 4.11 2.156.005 4.301-.31 6.363-.937 2.174-.704 3.408-2.992 2.805-5.195-.801-2.674-2.082-5.198-2.766-7.903-1.273-3.643-.049-7.691 3.029-10.019 3.23-2.417 6.318-5.021 9.248-7.797 4.857-5.261 10.789-9.417 17.393-12.19.703-.271 1.648-1.436 1.549-2.01-.164-1.19-.793-2.267-1.752-2.991-1.867-.998-4.217-1.148-5.992-2.271-1.119-1-1.875-2.346-2.145-3.824-.385-1.331 1.012-2.825 2.615-3.355 4.303-1.42 9.025.19 11.564 3.943 7.145 8.596 13.289 17.976 18.314 27.959 1.77 3.28 2.961 6.841 3.521 10.526.414 2.758 1.203 5.447 2.342 7.994.576 1.069 1.604 1.823 2.797 2.055 3.533.405 6.838-1.818 7.797-5.244.35-1.829.551-3.684.604-5.546.408-3.519-1.551-6.885-4.812-8.266-1.938-.989-3.818-2.089-5.631-3.294-6.688-4.261-7.059-4.17-9.232-11.952-1.047-3.726-3.609-6.419-4.941-9.889-1.297-3.149-1.885-6.545-1.723-9.946.432-4.216 2.098-8.211 4.791-11.485 2.621-.243 5.211-.739 7.736-1.481 5.85-2.171 12.15-2.841 18.326-1.95 6.232 4.307 11.74 8.312 17.445 11.983 2.125 1.3 4.453 2.233 6.889 2.763 6.92 2.014 14.195-1.794 16.484-8.628 1.33-3.285.457-7.05-2.184-9.414-4.1-4.419-10.139-6.49-16.086-5.515l-5.5.951c-6.486.563-13.016.391-19.461-.514-1.857-.245-3.623-.946-5.143-2.041-4.801-3.425-9.945-6.337-15.352-8.69l-.734-.56c-1.703-.928-2.547-2.902-2.041-4.773.555-2.084 1.273-4.12 2.152-6.089.992-1.902 2.078-3.753 3.256-5.546-1.449-3.197-1.906-6.756-1.307-10.216 4.672 1.305 9.562-1.199 11.234-5.752l.324-.857c1.574-3.733 4.504-6.729 8.201-8.387 1.795-1.388 4.35-1.199 5.922.438 2.094 1.738 3.643 4.292 6.74 4.427 1.76-.821 2.742-2.729 2.387-4.639-.535-2.717-1.305-5.383-2.301-7.967-.535-1.102-1.396-2.014-2.463-2.615-4.48-4.216-11.529-4.004-15.746.475-.922.98-1.66 2.12-2.176 3.364-1.021 1.541-1.828 3.218-2.75 4.824-2.607 4.503-5.244 8.991-7.812 13.54-.536 1.076-1.008 2.186-1.407 3.321zm-30.695 14.009c5.938-2.415 11.35-5.961 15.934-10.442 1.068-1.104 1.672-2.575 1.686-4.11.166-4.639-.289-9.294.008-13.933-.205-6.547 2.098-12.925 6.438-17.831 2.434-2.824 4.277-6.107 5.42-9.656.266-.888.23-1.839-.098-2.705-1.086-3.382-4.709-5.243-8.09-4.157-.594.19-1.154.466-1.668.818-2.102 1.375-3.494 3.6-3.816 6.089-.338 3.069-.941 6.103-1.805 9.066-3.432 11.98-9.883 22.876-18.738 31.643-.898.856-1.82 1.691-2.637 2.629-1.25 1.451-1.406 3.547-.387 5.168 2.034 2.989 4.677 5.516 7.753 7.421zm47.264 12.753c.834-.621 1.588-1.341 2.246-2.146 3.686-5.958 10.541-9.182 17.48-8.221l6.486.317c4.949.167 9.891.332 14.832.438 3.42.259 6.828-.658 9.656-2.599 1.211-1.042 1.412-2.842.461-4.125-.838-.899-1.783-1.691-2.816-2.356-5.15-2.879-10.939-4.427-16.84-4.503-7.123-.253-14.248.447-21.188 2.081-6.264 1.557-12.451 3.427-18.705 5.183-1.771 2.162-2.771 4.853-2.842 7.646-.389 1.883.449 3.806 2.094 4.805 2.663 1.987 5.827 3.192 9.136 3.48zm-98.229 24.872c-1.982 4.832-5.389 8.947-9.762 11.801-1.676 1.37-3.154 2.967-4.391 4.745-2.232 2.638-3.295 6.07-2.945 9.508.338 3.062.932 6.089 1.775 9.051 1.057 2.863 4.234 4.328 7.098 3.271 2.811-1.037 4.283-4.122 3.322-6.958-.34-.847-1.064-1.541-1.406-2.388-1.336-2.892-.504-6.322 2.01-8.28 2.688-2.073 5.51-3.967 8.445-5.671 5.396-3.749 12.062-5.206 18.533-4.05l.922.107c4.76.514 6.166-1.572 4.217-6.105-.881-2.017-2.66-3.5-4.803-4.001-7.398-2.626-15.411-2.984-23.015-1.03zm54.627-73.39c-2.156-3.5-3.447-7.464-3.764-11.563-.379-3.073-1.168-6.081-2.342-8.946-2.17-4.815-3.16-10.08-2.885-15.354-.055-2.465-.379-4.917-.969-7.312-.479-1.531-1.971-2.512-3.566-2.343-1.521.262-3.02.657-4.475 1.179-3.402 1.116-5.367 4.67-4.502 8.146.43 3.079 1.463 6.043 3.047 8.719 2.057 3.115 3.33 6.682 3.709 10.396.145 1.874 1.004 3.62 2.396 4.88.686.632 1.324 1.309 1.92 2.025 2.752 2.762 2.885 7.188.303 10.109-1.691 2.583-3.635 5.032-5.102 7.752-.77 1.656-1.205 3.448-1.283 5.273.061.905.547 1.728 1.312 2.216.83.343 1.762.354 2.6.03.842-.395 1.602-.941 2.242-1.612 4.326-4.053 8.138-8.619 11.359-13.595zm-60.558 9.302c-1.623-.66-3.32-1.121-5.055-1.372-3.51-.579-6.824 1.796-7.404 5.306-.268 1.63.1 3.301 1.027 4.667.705 1.374 1.68 2.591 2.861 3.582 2.43 1.937 4.996 3.696 7.678 5.263 7.842 4.465 14.645 10.549 19.953 17.846.875 1.271 1.936 2.407 3.143 3.37 1.834 1.303 4.279 1.345 6.158.107 1.779-.701 3.004-2.355 3.158-4.262.172-6.071-3.348-11.643-8.902-14.098-2.002-.816-4.125-1.346-6.203-1.98-5-1.766-9.508-4.7-13.145-8.558-2.785-2.705-1.318-6.618-3.269-9.871zm91.542 68.816c3.121 4.805 2.992 5.062 6.295 6.708 2.131 1.181 4.057 2.702 5.695 4.503 5.635 6.155 10.59 12.899 14.779 20.116 2.242 3.7 5.125 6.973 8.508 9.669 2.506 1.771 5.195 3.265 8.021 4.458 1.168.336 2.406.326 3.566-.031 1.615-.265 2.709-1.789 2.443-3.404-.098-.596-.377-1.148-.797-1.582-1.795-1.666-3.822-3.061-6.021-4.14-10.648-4.593-18.697-13.689-21.963-24.816-1.363-3.764-2.975-7.434-4.82-10.985-.537-1.109-1.473-1.973-2.621-2.417-4.406-1.616-9.332-.892-13.086 1.923v-.002zm-26.935 30.709c-1.729-1.188-4.084-.816-5.363.847-1.127 1.118-1.496 2.792-.945 4.28l1.059 2.571c1.82 3.923 2.5 8.28 1.959 12.572-.387 3.038.111 6.165-.123 9.232-.023 2.771-.535 5.515-1.512 8.11-2.199 6.474-1.723 13.558 1.33 19.674.387 1.224 1.678 1.714 3.492 1.118.863-5.372 1.404-10.792 1.615-16.229-.227-14.143-.975-28.288-1.512-42.173zm-49.027-110.312-.029-2.659c-4.135-4.502-7.533-9.627-10.07-15.187-.598-1.064-1.297-2.066-2.09-2.993l-.873-.166-.635.499c-1.047 2.916-.637 6.155 1.102 8.72 3.239 4.842 7.548 8.875 12.595 11.786zm91.861 23.316c1.869-.389 3.715-.883 5.529-1.481.629-.543.943-1.366.838-2.191-1.438-2.721-4.807-3.762-7.525-2.325-.992.523-1.803 1.334-2.326 2.325-.643.951-.053 2.946.938 3.158zm-92.02-3.067 1.004-.181.734-1.557c-.889-2.271-1.934-4.477-3.129-6.603-.627-.559-1.5-.752-2.303-.509-.811.771-1.836 2.146-1.609 2.962.835 2.637 2.768 4.783 5.303 5.888z"/><path d="m109.117 376.477.105-1.821c-.634-.008-1.397-.232-1.916.035-1.569.866-2.528 2.531-2.488 4.323-1.663.715-3.354 1.376-4.991 2.144-2.31 1.092-4.529 2.407-6.898 3.344-2.174.502-4.343-.853-4.845-3.026-.097-.421-.126-.856-.086-1.287.148-1.444.67-2.826 1.514-4.007 1.714-1.905 3.63-3.618 5.715-5.107 4.983-3.736 10.439-6.797 16.227-9.1 5.905-2.271 6.202-3.119 5.683-8.917-.231-2.538-.354-5.08-.465-7.634.177-2.1-.782-4.133-2.514-5.332l-6.901-.646c-6.562-.504-13.125-.981-19.688-1.434-2.596-.119-5.025-1.313-6.703-3.3-1.008-1.305-.767-3.18.538-4.188.177-.137.369-.253.572-.347 1.753-.471 3.545-.774 5.355-.909 4.756-.272 9.521-.343 14.261-.606 1.528-.095 2.765-.814 2.492-3.205-4.805-2.748-9.889-5.606-14.907-8.574-2.201-1.289-4.314-2.725-6.323-4.295-1.559-1.113-2.122-3.168-1.347-4.92.948-1.635 2.884-2.418 4.702-1.901 2.089.657 4.137 1.459 6.187 2.247 7.17 2.755 14.337 5.525 21.501 8.311.934.356 1.958 1.062 2.41-.789-2.584-3.513-6.045-6.287-10.037-8.045-5.009-3.049-10.576-5.066-16.375-5.938-.708-.024-1.76-1.371-1.946-2.268-.13-1.048.188-2.102.876-2.902 2.3-2.498 5.809-3.491 9.077-2.569 3.892 1.019 7.709 2.302 11.426 3.838 5.795 2.31 11.184 5.533 15.959 9.548 2.25 1.934 4.852.586 5.693-2.492 1.124-2.83.369-6.059-1.894-8.095-7.244-6.262-12.704-14.327-15.828-23.378-.711-3.211-2.514-6.076-5.102-8.107-10.819-2.805-22.307-1.25-31.99 4.33-1.65.785-3.431 1.26-5.252 1.4-2.397.242-4.537-1.504-4.779-3.9-.027-.273-.029-.549-.005-.822.023-3.428 2.238-6.454 5.497-7.514 3.114-1.012 6.456-1.306 9.638-2.146 5.607-1.762 11.506-2.408 17.361-1.901 1.819.091 3.641-.104 5.4-.573.49-.104 1.061-1.026 1.113-1.618-.071-.691-.341-1.348-.779-1.888l-.983-.433c-10.937-1.126-21.974-.822-32.831.907-2.854.53-5.734 1.04-8.622 1.282-2.251.206-3.7-2.132-3.316-4.618.291-1.825 1.331-3.445 2.871-4.468 2.799-1.802 6.084-2.7 9.411-2.57 8.054-.206 16.106-.208 24.149-.336 1.816.05 3.632-.133 5.402-.543.734-.201 1.317-1.493 1.618-2.417.094-.303-.873-1.346-1.413-1.399-2.528-.251-5.07-.34-7.61-.267-4.011.463-8.075.109-11.945-1.042-7.184-2.693-14.421-5.263-21.629-7.89l-.93-.574c-1.671-1.504-2.269-3.868-1.515-5.986.715-1.731 2.411-2.853 4.284-2.833 1.812.199 3.588.639 5.283 1.308 4.01 1.803 7.956 3.761 11.839 5.829 3.911 2.076 8.382 2.85 12.764 2.209 5.469-.203 10.916-.796 16.3-1.776 4.068-1.626 7.941-3.701 11.549-6.186 1.933-1.039 3.986-1.865 5.998-2.729l5.934-2.5c-.247-4.619-2.686-8.842-6.563-11.365-2.341-1.739-5.038-3.019-7.307-4.835-4.826-4.528-11.072-7.244-17.675-7.683-1.898-.266-3.297-1.912-3.253-3.829-.25-1.868.649-3.703 2.278-4.651 2.572-1.563 5.768-1.693 8.458-.343 2.607 1.318 5.127 2.802 7.546 4.44 3.404 2.142 6.65 4.558 10.149 6.521 3.665 1.725 6.723 4.52 8.77 8.015.768 1.436 1.826 3.218 4.089 2.86 1.298-1.846 1.324-4.302.065-6.175-1.382-2.992-3.177-5.776-5.333-8.27-3.484-4.701-7.784-8.739-12.694-11.922-3.359-1.782-5.286-5.436-4.859-9.214.27-2.256 2.317-3.866 4.573-3.596.386.046.763.147 1.121.299 1.253.735 2.409 1.625 3.441 2.647 5.465 5.415 10.852 10.905 16.288 16.343 1.01.995 2.091 2.054 4.021 1.293.805-3.083.983-6.297.524-9.451-.236-5.862.765-11.708 2.938-17.158.6-1.21 2.761-2.367 3.572-1.744.82.642 1.92 1.58 1.948 2.425.039 2.91-.074 5.82-.337 8.719-.637 8.048.562 16.136 3.508 23.654.734 1.469 2.52 2.065 3.99 1.332.24-.12.462-.271.662-.451 4.896-4.928 9.72-9.931 14.653-14.834 3.345-3.963 8.098-6.472 13.257-6.999 2.541-.359 5.046-.939 7.486-1.733 2.945-.623 5.307-2.816 6.146-5.707 1.047-2.347 1.758-4.83 2.112-7.375 1.594-6.917-.838-14.142-6.289-18.688-2.825-1.958-1.943-5.386 1.329-6.844 2.667-1.474 5.998-.911 8.032 1.357 2.35 2.825 4.084 6.109 5.094 9.642.606 1.274 1.345 2.481 2.204 3.601 3.643-2.135 6.661-5.188 8.754-8.854 2.008-3.089 4.873-5.527 8.242-7.017 2.427-1.065 5.268-.347 6.896 1.746 1.787 1.921 1.287 4.969-1.155 5.129-4.438.479-8.355 3.113-10.473 7.042-1.461 2.111-3.06 4.129-4.562 6.198-2.856 4.299-4.395 9.338-4.429 14.5.109 1.055.73 1.989 1.661 2.497 1.021.344 2.145.186 3.032-.426 1.944-1.622 3.599-3.561 4.896-5.734 5.198-8.922 13.096-15.963 22.555-20.106 1.295-.693 2.784-.931 4.23-.676 1.331.409 2.468 1.286 3.203 2.468.354.579-.273 2.171-.922 2.858-1.039 1.03-2.264 1.855-3.607 2.433-8.43 4.63-14.896 12.16-18.198 21.192-1.815 3.768-1.174 5.753 1.918 8.825 3.543 3.163 6.852 6.578 9.902 10.218 4.269 5.726 7.601 5.275 12.256-.122.942-1.124 1.729-2.37 2.339-3.704 2.926-5.089 4.987-10.627 6.104-16.391.154-1.329.375-2.938 2.295-3.127.549.438 1.346.748 1.602 1.32 1.379 3.021 1.586 6.448.577 9.613-1.257 9.142-5.806 17.511-12.795 23.538-2.394 1.615-1.958 4.508-.834 7.051.593 1.566 2.341 2.356 3.908 1.764.211-.08.413-.183.603-.308 3.322-2.296 6.146-5.245 8.293-8.666 3.924-5.753 7.848-11.515 12.016-17.093 1.396-1.644 3.111-2.988 5.039-3.954 1.033-.287 2.143-.052 2.972.629.735.759 1.056 1.829.856 2.867-1.431 2.948-3.039 5.807-4.814 8.561-1.948 3.068-4.23 5.95-6.137 9.058-.721 1.198-.908 2.845 1.47 4.002 3.907-1.79 8.159-3.826 12.505-5.669 3.344-1.472 6.773-2.739 10.271-3.794 2.543-.746 5.289.076 7.006 2.095.564.869.803 1.911.666 2.938-.182.704-.689 1.278-1.367 1.543-3.615.408-7.17 1.253-10.584 2.517-8.643 4.808-16.508 10.897-23.326 18.06-.703.844-1.296 1.775-1.762 2.77-.664 1.756-.02 3.738 1.551 4.767 4.355 1.883 8.8 3.585 13.084 5.606 5.083 2.938 10.553 5.152 16.25 6.574 2.557.478 4.842 1.901 6.396 3.986 2.053 2.571 4.098 5.158 5.955 7.872 2.262 3.288 2.617 8.12 6.281 10.075 3.699 1.573 7.557 2.746 11.506 3.5 1.418.407 2.877.639 4.26 1.131 1.055.299 2.023.845 2.826 1.59.949 1.027 1.631 2.273 1.979 3.627.301 1.512-1.623 3.55-3.314 3.82-1.43.229-2.877.332-4.324.312-2.562-.054-5.123-.386-7.678-.345-2.262-.217-4.439.918-5.553 2.896-1.104 2.258-2.312 4.66-.041 6.977 3.938.965 8.09.49 11.707-1.338 2.02-.85 4.012-1.734 6.07-2.481 1.697-.629 3.643 1.347 3.324 3.183-.287 2.23-1.699 4.157-3.74 5.104-1.654.748-3.506 1.062-5.232 1.652-7.965 2.722-15.92 5.472-23.869 8.25-2.467.83-4.496 2.615-5.629 4.957-.854 2.062.127 4.424 2.188 5.276.062.024.125.05.189.072 1.762.463 3.598.563 5.398.295 3.895-.992 7.719-2.231 11.453-3.711 2.729-1.058 5.254-2.61 7.906-3.869 2.699-1.257 5.832-1.188 8.473.187 1.578.928 2.107 2.959 1.182 4.535-.029.049-.059.096-.088.141-.684.855-1.514 1.58-2.447 2.146-4.301 2.008-8.66 3.881-13.006 5.786l-16.619 7.271c-1.242 4.01-2.281 7.476-3.393 10.91-.43 1.347-1.498 2.631.336 4.623 1.924.262 3.812.742 5.625 1.434 1.562.877 2.887 2.121 3.855 3.628.494.956.518 2.085.062 3.06-.578.875-1.529 1.432-2.576 1.51-2.545-.065-5.08-.64-7.625-.767-1.316-.073-2.918 0-3.173 2.132 5.509 4.801 12.116 8.168 19.239 9.799 2.818.77 5.502 1.97 7.955 3.558.867.63 1.371 1.646 1.348 2.717-.414.929-1.281 1.573-2.289 1.702-8.83-.262-17.453-2.723-25.092-7.161-6.016-3.47-12.663-5.708-19.553-6.584-2.168-.332-4.377-.315-6.541.044-2.242-.053-4.36 1.029-5.631 2.878-.797 1.396 1.488 3.604 5.59 4.078 10.885 1.894 21.109 6.521 29.715 13.448 5.57 4.259 9.412 10.389 10.816 17.258.295 1.093-2.025 2.865-3.09 2.307-1.332-.479-2.512-1.305-3.416-2.393-3.439-5.705-8.416-10.325-14.361-13.331-4.121-2.386-8.389-4.503-12.778-6.343-2.404-.887-4.915-1.451-7.466-1.676-2.914-.605-5.764 1.265-6.369 4.177-.024.116-.045.233-.061.353-.578 3.248-.834 6.539-1.289 9.801-.558 7.694-2.727 15.188-6.365 21.992l.203 2.561c3.638 1.42 7.508 2.143 11.412 2.127 1.814.066 3.621.279 5.399.639.847.26 1.584 1.393 2.049 2.293.416 1.465-.403 2.996-1.854 3.463-5.629 1.68-11.545 2.188-17.381 1.492-3.008-.779-6.199-.424-8.959 1.002 2.051 1.637 4.187 3.164 6.396 4.576 1.973.965 4 1.814 6.07 2.545 3.352 1.402 6.709 2.805 9.994 4.359.436.193.666 1.303.588 1.938-.086.701-.465 1.334-1.041 1.742-.937.568-2.01.871-3.104.875-8.831-.434-17.421-3.025-25.017-7.551-1.471-1.08-3.039-2.021-4.683-2.814-.986-.197-2.011-.01-2.862.527-.319.176-.34 1.396-.14 2.033 1.265 3.854 3.538 7.297 6.583 9.975 1.875 1.74 3.872 3.367 5.581 5.256 1.172.98 1.329 2.727.348 3.898-.014.018-.027.033-.041.051-1.067.91-2.445 1.373-3.846 1.293-1.793-.275-3.493-.986-4.95-2.066-5.23-4.055-9.665-9.041-13.079-14.711-1.672-2.715-1.49-7.268-5.244-7.834-3.266-.078-6.519.453-9.589 1.57-3.458.855-7.43.256-10.072 3.146-.394.699-.683 1.453-.857 2.238-1.586 9.764-4.613 19.24-8.98 28.115-1.055 2.346-2.507 4.488-4.291 6.34-1.974 2.23-4.796 3.527-7.775 3.572-2.168.18-4.521-2.309-3.672-4.312 1.193-3.041 2.729-5.938 4.578-8.631 4.168-5.596 7.361-11.855 9.444-18.516.634-2.457.939-4.988.907-7.525-.138-1.084-.712-2.064-1.591-2.715-3.393-2.686-8.32-2.109-11.004 1.283-.381.48-.704 1.006-.962 1.562-1.093 2.709-1.997 5.49-2.705 8.322-1.067 3.898-2.859 7.561-5.282 10.795-2.548 3.348-5.708 3.061-7.694-.734-.594-1.115-.06-3.041-2.867-2.947-.913 1.557-2.113 3.342-3.053 5.248-2.629 4.416-6.087 8.285-10.184 11.391-2.241 1.391-5.123 1.184-7.142-.516-1.334-1.83-1.233-4.338.245-6.055 1.312-1.74 2.743-3.389 4.284-4.93 7.279-8.275 12.513-18.145 15.28-28.812 1.279-3.195.039-6.85-2.923-8.607-4.842-3.305-8.996-7.516-12.231-12.404-2.541-3.572-5.305-6.982-8.274-10.209-1.4-1.855-4.038-2.227-5.896-.83-4.246 2.897-7.974 6.487-11.029 10.621-2.201 2.926-4.654 5.65-7.333 8.145-1.233.721-2.682.98-4.089.734-1.427-.1-2.728-2.57-2.326-4.449.35-2.15 1.016-4.24 1.977-6.197 2.692-4.771 5.705-9.376 8.591-14.042 3.167-1.039 6.015-2.87 8.274-5.319-5.236.301-5.214.307-8.143 5.489-4.305.92-8.029 3.597-10.274 7.382-1.58 2.424-2.986 4.999-4.753 7.289-3.766 4.848-7.613 9.645-11.681 14.254-1.112.873-2.587 1.135-3.933.697-1.178-.754-1.979-1.973-2.203-3.352-.375-2.914.369-5.861 2.081-8.25l7.15-10.912c2.778-3.36 4.92-7.199 6.322-11.327 1.786.064 3.48-.819 4.445-2.328zm199.667-93.546c5.564-4.607 7.391-12.352 4.467-18.958-1.674-6.056-5.795-11.141-11.371-14.035-9.871-5.628-20.354-10.104-31.246-13.341-6.196-1.39-11.448-5.475-14.32-11.139-1.752-2.784-3.342-5.667-4.764-8.634-1.426-4.624-4.719-8.44-9.084-10.527-.464-1.421-.829-2.872-1.092-4.344-2.577-13.884-14.74-23.921-28.861-23.815-8.832.043-17.56 1.915-25.632 5.498-1.704.69-3.262 1.696-4.592 2.965-5.892 4.957-11.218 10.549-15.882 16.674-6.729 10.677-17.383 18.282-29.667 21.175l-6.383 1.621c-1.428.335-2.907.457-4.292.91-7.35 1.463-12.122 8.607-10.659 15.957.044.223.094.444.15.665 1.875 11.98 5.948 23.512 12.012 34.014 1.397 2.145 2.996 4.153 4.774 5.997 1.187 1.4 2.492 2.695 3.901 3.872 7.074 5.879 8.935 15.975 4.422 23.99-1.708 4.048-3.767 7.938-6.151 11.628-4.087 6.542-6.872 13.813-8.201 21.412-1.042 5.122.516 10.427 4.162 14.171l2.985 3.238c7.457 7.568 14.01 15.977 19.526 25.056 4.096 5.625 8.747 10.823 13.882 15.519.486.559 1.09 1.002 1.769 1.297 7.593 4.391 15.752 7.721 24.25 9.896 9.778 1.846 19.86 1.252 29.354-1.73 2.401-.916 4.888-1.584 7.424-1.996 9.666-2.26 18.758-6.498 26.706-12.445 1.743-1.305 3.041-3.118 3.711-5.189 1.233-3.841 2.271-7.742 3.108-11.688 1.558-4.208.659-8.932-2.333-12.273-2.432-2.582-1.625-6.182-1.562-9.486-.199-6.398 3.365-12.322 9.112-15.146 6.788-3.633 13.587-7.231 20.349-10.901 2.89-1.578 5.766-3.205 8.496-5.037 2.474-1.143 3.551-4.073 2.408-6.547-.15-.326-.336-.633-.554-.918-.967-1.543-1.843-3.142-2.625-4.785-.533-1.358-.75-2.82-.638-4.274.246-2.534 1.062-4.998 1.289-7.535.227-2.536.027-5.114 0-8.829 3.998-4.14 7.574-8.334 11.656-11.977zm-136.301 148.092c1.384-2.047 1.962-4.531 1.625-6.979z"/><path d="m176.48 236.682c3.917-1.958 7.604-4.373 11.383-6.597 4.987-3.342 11.365-3.813 16.79-1.241 3.319 1.34 6.553 2.881 9.686 4.613 3.013 2.641 5.568 5.763 7.562 9.239 1.941 2.655 3.549 5.573 5.474 8.241 1.104 1.895 2.607 3.526 4.406 4.781 5.488 4.245 11.435 7.862 17.729 10.782 3.065 1.215 5.993 2.754 8.729 4.592 4.328 2.287 7.137 6.679 7.395 11.566 1.414 9.988-1.982 20.055-9.157 27.146-3.974 3.777-8.219 7.259-12.703 10.416-5.889 3.871-10.078 9.844-11.715 16.699-.875 4.279-1.402 8.625-1.573 12.99-.276 4.389-.099 8.791-.196 13.174-.14 4.472-2.317 8.635-5.912 11.299-10.576 8.486-25.313 9.5-36.95 2.539-2.369-1.621-5.141-2.654-7.657-4.062-1.582-.879-3.085-1.894-4.492-3.032-4.217-3.673-6.475-9.106-6.101-14.688-.073-6.58-.078-13.159-.068-19.734-.028-1.105.119-2.207.435-3.266 1.763-7.488 2.335-15.207 1.695-22.873.483-9.605-2.499-19.064-8.403-26.655-3.018-4.135-5.59-8.577-7.675-13.252-3.728-7.077-2.294-15.771 3.509-21.276 2.46-2.701 5.032-5.283 6.714-7.047 4.397-1.708 7.888-2.741 11.095-4.354zm8.384 7.972c-.245 2.988.349 5.984 1.714 8.653.458 1.748.577 3.566.351 5.356-.085.803-1.21 1.502-2.222 2.648-2.748-2.828-5.167-5.501-7.791-7.956-2.654-2.805-7.079-2.928-9.884-.274-.01.01-.021.02-.031.029-3.236 1.948-5.014 5.625-4.529 9.371.48 4.555 3.952 8.225 8.474 8.954 2.506.429 5.049.741 7.514 1.347 1.693.743 2.462 2.719 1.718 4.412-.172.393-.418.748-.725 1.047-1.542 1.105-3.163 2.098-4.848 2.967.665 4.311 2.251 8.426 4.651 12.066 1.456 2.639 4.159 4.352 7.167 4.539 2.526.301 5.026.791 7.48 1.462 1.316.417 2.045 1.823 1.628 3.14-.245.772-.849 1.379-1.621 1.625-2.067.684-4.311.826-6.432 1.375-1.328.435-2.625.961-3.88 1.576-1.732 3.336-2.503 7.09-2.228 10.838-.288 2.588.471 5.184 2.108 7.209 2.632 2.828 2.523 7.24-.245 9.935-4.092 5.317-5.635 12.168-4.218 18.728l1.203 6.365c3.202 2.904 6.95 5.143 11.025 6.585 3.162-1.684 2.852-4.519 3.634-6.881.326-1.407 1.034-2.696 2.046-3.728 1.206-.733 2.64-.994 4.027-.734.665.107 1.591 1.705 1.541 2.578-.206 2.884-.83 5.765-1.23 8.65-.223 1.821 1.073 3.48 2.896 3.703.081.01.161.018.242.021 1.825.029 3.649-.069 5.46-.295 5.837-.09 10.517-4.859 10.496-10.698.494-5.228-2.083-10.267-6.609-12.927-1.925-1.022-4.162-1.418-6.162-2.319-1.29-.638-2.481-1.459-3.536-2.437l-.695-1.946c.477-.856 1.354-1.951 2.172-2.038 2.163-.227 4.371.122 6.569.07 2.531-.077 5.058-.327 7.92-.529 1.207-2.389 2.476-4.576 3.427-6.9.989-1.703.409-3.885-1.294-4.873-.294-.172-.612-.3-.943-.381-1.698-.674-3.496-1.076-5.207-1.724-1.102-.427-1.332-3.042-.323-3.877 3.055-3.228 7.552-4.664 11.912-3.804 1.695.754 3.645.674 5.272-.215 4.994-3.664 9.952-7.365 14.81-11.199 1.387-1.09.384-3.883-1.283-4.488-3.875-1.321-8.117-1.047-11.79.763-4.502 1.517-9.175 2.472-13.912 2.845-.723.103-1.459-.004-2.124-.309-.665-.264-1.211-.76-1.536-1.398-.175-.677-.033-1.397.386-1.957.742-.799 1.633-1.447 2.623-1.903 2.774-.935 5.474-2.074 8.078-3.41 6.06-3.456 12.985-5.097 19.951-4.728 1.826-.041 3.648-.176 5.462-.403 1.446-.45 2.345-1.89 2.115-3.388-.511-2.92-2.08-5.549-4.406-7.387-4.576-3.691-9.746-6.578-15.288-8.539-3.213-1.121-6.784-.16-9.003 2.418-1.533 1.521-2.396 3.694-3.839 5.328-.743.689-1.788.951-2.768.689-.913-.573-1.502-1.543-1.591-2.619.057-1.814.399-3.609 1.014-5.318 1.053-3.091 2.36-6.107 3.652-9.391-2.363-4.999-5.257-9.729-8.63-14.11-1.459 1.537-2.476 2.138-2.815 3.007-2.395 6.13-4.626 12.313-6.952 18.474-.302 1.055-.827 2.033-1.538 2.871-.741.77-1.772 1.193-2.841 1.168-.992-.359-1.724-1.213-1.928-2.248.086-2.922.398-5.831.933-8.704.511-2.517 1.177-4.998 1.994-7.432 2.245-5.502-.231-11.798-5.625-14.295-3.851.953-8.368 1.018-11.143 4.95z"/><path d="m413.813 530.962c-1.348 1.119-.682 2.57-.682 3.885-2.258.682-3.348 2.658-4.934 4.141-5.971 4.369-9.426 11.387-9.248 18.781.053 1.445-1.074 2.66-2.52 2.715-.104.004-.211.002-.314-.01-1.402-.18-2.68-.9-3.559-2.01-.986-1.525-1.551-3.289-1.633-5.105-.506-5.959 1.939-11.791 6.543-15.609 2.383-1.705 4.209-4.076 5.252-6.814 1.02-1.984.234-4.42-1.75-5.438-.062-.033-.127-.064-.191-.092-4.359-1.77-8.795-3.355-12.828-4.867-3.098 1.646-3.416 4.322-4.338 6.68-.959 3.941-3.062 7.512-6.045 10.26-3.127 2.629-4.928 6.51-4.912 10.596-.338 2.508-.572 5.029-1.035 7.51-.502 1.275-1.943 1.9-3.217 1.398-.115-.045-.227-.1-.332-.16-.871-.652-1.98-1.271-2.402-2.162-3.061-4.705-3.25-10.723-.49-15.609 1.451-2.523 3.199-4.867 5.205-6.977 3.004-2.715 5.096-6.293 5.984-10.244.559-2.465 1.557-4.836 2.408-7.391-3.223-5.479-7.869-9.979-13.449-13.021l-11.136 12.581c-3.455 4.805-8.512 8.223-14.258 9.641-3.943.635-7.934.951-11.695 1.391-2.787-4.354-2.814-4.367-.59-8.977 12.24-.15 14.5-1.072 20.951-8.762 3.98-4.744 7.918-9.533 12.354-14.898-.371-2.26-.936-4.484-1.686-6.648-.645-1.277-1.854-2.174-3.264-2.418-6.225-.148-12.443.445-18.527 1.768-6.662 1.959-13.586 3.039-20.391 4.459-3.291.688-6.711-.26-9.182-2.539-1.281-.865-1.709-2.559-.99-3.93.484-.938 1.326-1.645 2.336-1.957 5.449-.682 10.979-.816 16.389-1.709 9.951-2.039 20.066-3.178 30.223-3.398.793-3.879.146-7.914-1.812-11.354-4.049-1.27-9.203-.514-12.625-4.74-3.912-4.674-10.408-6.26-16.033-3.918-2.814.803-5.59 1.77-8.418 2.523-1.736.562-3.547.879-5.373.936-1.424-.039-2.797-.537-3.916-1.42-1.609-1.391-.996-3.369-.334-5.092.795-2.115 2.676-3.631 4.91-3.957 5.41-.938 10.836-1.842 16.289-2.432 5.506-1.02 11.174.578 15.338 4.32 1.943 1.676 4.137 3.037 6.498 4.039 2.912 1.551 6.531.445 8.082-2.469.088-.164.168-.334.24-.508 2.191-4.986 4.156-10.08 6.416-15.58-4.041-1.6-7.82-2.871-11.371-4.594-3.627-1.752-7.004-3.988-10.541-5.922-.973-.516-2.023-.861-3.113-1.027-3.65-.645-6.982-2.482-9.475-5.229-2.762-3.521-7.215-5.275-11.637-4.578-3.383.572-5.129-2.992-3.514-6.074 1.816-3.826 6.311-5.561 10.225-3.945 4.33 2.02 8.227 4.863 11.469 8.371 8.629 8.059 19.678 13.041 31.432 14.176 3.07-3.889 5.33-8.354 6.648-13.131-1.994-7.422-7.371-13.469-14.508-16.314-4.951-2.422-9.414-5.736-13.16-9.777-2.646-2.596-4.158-6.132-4.209-9.836-.213-1.895.955-3.672 2.779-4.229 2.562-.294 5.002 1.177 5.938 3.582 4.15 7.865 11.312 13.716 19.848 16.214 2.109.716 3.855 2.229 4.859 4.216 1.426 2.945 3.857 5.285 6.855 6.6 3.316-1.084 5.248-4.531 4.439-7.928-.52-3.627-1.391-7.209-1.852-10.836-.578-4.051-2.82-7.676-6.188-10.005-4.367-3.323-8.84-6.526-13.219-9.853-2.359-1.732-4.615-3.604-6.756-5.605-.943-1.1-1.643-2.386-2.047-3.777-.574-1.557.354-4.477 1.67-4.84 1.35-.443 2.807-.449 4.162-.016 4.092 1.734 7.469 4.818 9.564 8.738 1.111 1.859 2.732 3.365 4.668 4.338 8.072 3.754 13.955 11.027 15.938 19.707.41 1.791.982 3.541 1.713 5.228.627 1.662 1.102 3.521 3.59 4.187 4.686-.844 8.76-3.709 11.137-7.834-1.979-2.871-3.936-5.5-5.648-8.266-1.891-2.697-3.475-5.597-4.725-8.644-3.209-10.552-4.076-21.677-2.545-32.599.105-1.103 1.639-2.449 2.814-2.947 1.725-.709 4.889 1.592 4.934 3.4.021 1.814-.143 3.627-.488 5.409-1.479 6.851-.975 13.979 1.449 20.556 3.395 8.556 9.041 16.033 16.344 21.638l11.643-2.07c2.078-2.344 2.801-5.594 1.912-8.599-.891-5.793-1.885-11.569-2.832-17.356-1.146-6.604.918-13.362 5.561-18.196.562-.442 1.277-.644 1.986-.559 2.941.676 4.885 3.477 4.488 6.469-.801 2.039-2.16 3.867-2.787 5.952-.766 2.035-1.045 4.22-.816 6.382 1.842 8.592 2.93 17.329 3.25 26.111.188 1.049.855 1.949 1.805 2.432 1 .33 2.098.155 2.945-.468 4.443-4.374 8.043-9.526 10.623-15.202 3.117-7.048 5.352-14.453 6.65-22.05.209-1.45.537-2.88.979-4.276.688-2.06 2.916-3.17 4.975-2.48 1.166.391 2.08 1.302 2.475 2.465l.258 1.073c1.191 6.542.105 13.295-3.076 19.134-2.342 4.109-3.988 8.629-6.043 12.92-1.422 2.946-3.053 5.803-4.518 8.734-.627 1.238-1.08 2.57-1.807 4.322 4.684 3.426 8.99 6.799 13.541 9.803 2.018 1.686 4.789 2.148 7.244 1.207 2.621-2.574 4.721-5.631 6.182-9.002 1.938-3.98 4.959-7.334 8.719-9.67 3.254-1.697 6.062-4.141 8.189-7.131.516-.52 1.115-.943 1.775-1.254l.998-.41c1.012.123 2.357.045 2.9.65.566.854.652 1.939.227 2.872-3.119 3.565-6.717 6.739-9.641 10.442-3.104 3.623-5.67 7.675-7.623 12.027-1.939 4.133-4.135 8.139-6.574 11.996l.666 1.469c5.961 8.25 5.984 8.189 15.92 9.354 2.561.479 5.199-.252 7.146-1.979 2.396-2.223 4.604-4.67 6.869-7.043 2.779-2.914 5.385-5.996 8.34-8.719 1.451-1.076 3.104-1.854 4.859-2.281.719-.033 1.406.281 1.852.846l.33 1.979c-1.584 2.857-3.564 5.479-5.885 7.781-3.406 2.764-6.328 6.072-8.65 9.791-2.693 4.934-7.67 8.193-13.27 8.691-.928.076-1.789 1.072-2.553 1.557-1.422 5.215 1.391 9.506 2.137 14.129.748 4.623.84 9.385 1.256 14.564 1.457.256 2.945.271 4.406.047 3.764-1.422 7.404-3.158 11.092-4.773 4.961-2.377 10.23-4.045 15.654-4.955 4.758-.801 9.639.312 13.578 3.098 1.855 1.262 2.693 3.568 2.08 5.727-.793 1.959-2.861 2.414-5.574 1.193l-1.92-1.072c-4.451-2.783-10.045-3.004-14.703-.574-1.346.543-2.568 1.436-3.949 1.916-7.246 2.555-12.709 8.4-20.082 10.787-2.236.701-3.605 2.955-3.195 5.264 3.037 4.217 7.859 6.781 13.055 6.941 2.932.104 5.854.381 8.748.83 2.127.434 4.182 1.16 6.105 2.16.877.566 1.422 1.527 1.459 2.57-.076.734-1.203 1.678-2.057 1.98-1.078.217-2.186.236-3.271.061-9.434 1.107-18.994 0-27.924-3.234-2.373-1.254-7.578 2.281-7.428 4.973-.098 3.631-.666 7.23-1.691 10.715-.824 4.018-.131 8.199 1.949 11.736 2.84 6.396 7.521 11.799 13.449 15.52 2.844 1.67 5.33 3.883 7.32 6.512.971 1.516 1.48 3.279 1.469 5.078.068.785-.906 1.844-1.67 2.447-.674.256-1.432.164-2.025-.244-3.299-2.883-6.771-5.559-10.402-8.008-6.998-4.113-12.607-10.223-16.109-17.545l-1.51-2.9c-1.004-1.139-2.666-1.422-3.99-.68-3.488 2.629-6.996 5.262-10.381 8.037-1.494 1.209-1.914 3.312-.998 5.002.793 1.637 1.697 3.217 2.705 4.729 2.352 3.688 4.949 7.238 7.088 11.047.959 1.963 1.562 4.08 1.777 6.256.023 1.066-.494 2.072-1.377 2.674-1.262.348-3.393.438-3.996-.303-2.445-2.729-4.475-5.805-6.021-9.127-2.725-5.184-6.562-9.697-11.242-13.219-3.549-2.771-8.672-2.141-11.443 1.408-.303.387-.568.801-.797 1.234-1.111 2.293-1.889 4.736-2.303 7.254-1.129 8.037.535 16.221 4.715 23.18 1.346 2.584 2.691 5.184 3.867 7.834.143.705-.098 1.434-.627 1.92-.816.643-1.846.955-2.881.875-1.402-.324-2.654-1.111-3.557-2.236-6.988-9.547-10.541-21.178-10.08-33 .084-1.834-.012-3.672-.289-5.486-.645-1.771-2.598-2.689-4.373-2.055-7.291 2.486-11.186 10.41-8.697 17.701.014.037.025.076.039.113.521 1.369.922 2.777 1.199 4.215 1.184 5.389 1.455 10.934.811 16.41-.434 1.73-1.299 3.322-2.518 4.625-.902.334-1.914.191-2.691-.377-.742-1.23-1.189-2.617-1.309-4.051-.146-4.742-.658-9.467-1.533-14.129-2.07-7.43-2.15-15.271-.234-22.742.348-1.219 2.07-2.127.869-3.729zm51.006-18.13c3.635-2.357 5.916-6.539 10.623-7.508 1.164-.256 2.176-1.844 3.006-2.977 1.338-1.73 2.506-3.59 3.482-5.547 6.867-12.547 11.08-26.371 12.377-40.615.938-8.52-2.396-16.953-8.906-22.529-.559-.623-1.035-1.312-1.422-2.055v-6.119c-.326-.686-.738-1.324-1.225-1.904-3.248-2.963-6.566-5.848-9.83-8.779-1.484-1.037-2.785-2.318-3.838-3.795-2.629-4.461-6.809-7.799-11.74-9.373-4.049-1.707-8.062-3.502-12.148-5.088-8.199-3.484-17.48-3.392-25.607.256-2.324 1.043-4.811 1.738-7.07 2.914-4.859 2.494-9.688 5.047-14.379 7.857-2.184 1.285-3.867 3.385-6.008 4.773-8.859 6.006-15.529 14.73-19.002 24.857-2.629 6.83-5.039 13.75-7.66 20.58-1.811 4.441-1.916 9.396-.295 13.914 1.578 4.486 2.666 9.188 4.639 13.494 6.473 13.348 17.943 23.607 31.93 28.555 8.305 2.795 16.809 4.951 25.439 6.453 1.787.299 3.604.369 5.41.213 1.775-.314 3.584-.42 5.385-.318 5.672 1.707 11.805-.285 15.391-4.996 6.901 1.03 6.756.803 11.448-2.263z"/><path d="m464.856 459.103c-.412 2.654 1.178 5.211 3.74 6.012 1.006.355 2.109.312 3.082-.121 1.256-.742 2.354-1.723 3.232-2.885 1.867-1.928 2.018-4.939.348-7.037-1.242-1.891-3.48-2.867-5.713-2.494-2.619.504-4.527 2.771-4.576 5.439z"/><path d="m457.938 431.179c.197 2.121 1.646 3.918 3.678 4.562 2.285.795 4.779-.412 5.574-2.695.191-.549.271-1.131.234-1.711-.166-1.066-.52-2.096-1.049-3.037-1.012-2.004-3.189-3.137-5.41-2.814-2.055 1.123-3.246 3.363-3.029 5.695z"/><path d="m454.672 503.601c2.854-.936 4.609-3.803 4.141-6.77-.861-2.068-2.979-3.322-5.205-3.082-2.432.947-3.908 3.424-3.59 6.012.219 1.725 3.188 4.172 4.654 3.84z"/><path d="m413.176 470.583c-2.848-.213-5.33 1.924-5.543 4.773-.014.195-.018.395-.01.592.316 2.252 2.326 3.871 4.594 3.701 2.639-.148 4.74-2.258 4.881-4.896.217-2.078-1.293-3.938-3.371-4.154-.184-.017-.367-.023-.551-.016z"/><path d="m446.844 476.236c2.557.191 4.869-1.51 5.449-4.006.5-2.523-.975-5.023-3.428-5.803-2.658-.543-5.176 1.814-5.502 5.141-.089 2.183 1.364 4.131 3.481 4.668z"/><circle cx="391.522" cy="460.889" r="4.315"/><path d="m439.063 441.076c0 2.887 1.162 4.67 2.803 5.105 1.811.445 3.699-.361 4.631-1.979 1.418-1.748 1.51-4.225.227-6.074-1.1-1.773-3.432-2.318-5.205-1.219-.443.275-.826.643-1.121 1.074-.556.981-1.001 2.018-1.335 3.093z"/><path d="m429.708 411.458c1.02 1.494 2.17 2.895 3.439 4.186.98.389 2.092.266 2.965-.33 1.143-.795 1.947-1.984 2.26-3.342-.289-2.623-2.438-4.65-5.07-4.789-2.09.09-3.711 1.854-3.621 3.943.003.112.013.221.027.332z"/><path d="m431.827 498.117c1.754-.469 3.477-1.041 5.16-1.715 1.609-.893 2.189-2.918 1.299-4.527-.195-.354-.453-.668-.762-.928-1.096-.928-2.393-1.584-3.785-1.92-1.045-.059-2.049.414-2.668 1.256-.711 1.623-1.098 3.369-1.133 5.141-.01.786 1.092 1.62 1.889 2.693z"/><path d="m379.752 489.533c2.658.092 4.939-1.883 5.229-4.529.236-1.863-1.084-3.568-2.949-3.805-.027-.002-.053-.006-.08-.008-2.842-.666-4.889.182-5.373 2.234-.702 2.553.681 5.215 3.173 6.108z"/><path d="m424.163 448.265c-.027 2.643 1.996 4.855 4.631 5.062 2.176-.137 3.795-2.584 3.809-5.754.037-1.877-1.365-3.473-3.232-3.672-2.576-.287-4.898 1.566-5.188 4.145-.009.073-.016.145-.02.219z"/><path d="m418.799 503.875c-.064-2.232-1.674-4.117-3.869-4.529-2.121-.367-5.01 1.299-5.176 2.99.17 2.578 2.004 4.744 4.52 5.336 2.236.019 4.156-1.59 4.525-3.797z"/><path d="m390.456 429.457c.311.877.736 1.711 1.262 2.479l1.973.695c2.85.451 5.02-.561 5.102-2.541.02-1.041-.402-2.043-1.162-2.756-2.064-1.635-5.066-1.291-6.709.771z"/></g></svg>