<svg enable-background="new 9.562 23.062 592.879 592.875" height="592.875" viewBox="9.562 23.062 592.879 592.875" width="592.879" xmlns="http://www.w3.org/2000/svg"><g fill="#787b7e"><path d="m258.188 520.312c-15.816 0-28.688 12.87-28.688 28.688s12.871 28.688 28.688 28.688 28.688-12.87 28.688-28.688-12.872-28.688-28.688-28.688zm0 38.25c-5.269 0-9.562-4.284-9.562-9.562s4.293-9.562 9.562-9.562 9.562 4.284 9.562 9.562-4.293 9.562-9.562 9.562z"/><path d="m363.375 501.188c-15.816 0-28.688 12.871-28.688 28.688s12.87 28.688 28.688 28.688 28.688-12.871 28.688-28.688-12.872-28.688-28.688-28.688zm0 38.25c-5.269 0-9.562-4.283-9.562-9.562s4.295-9.562 9.562-9.562 9.562 4.283 9.562 9.562-4.293 9.562-9.562 9.562z"/><path d="m602.438 195.188v-172.126h-191.25v76.5h-66.938v162.562h-76.5v-114.75h-66.938v-76.5h-191.25v172.126h191.25v-76.5h47.812v95.625h-38.25v57.375h19.126v57.375h-124.312c-15.816 0-28.688-12.871-28.688-28.688v-20.885c11.102-3.959 19.125-14.478 19.125-26.928 0-15.816-12.871-28.688-28.688-28.688s-28.687 12.873-28.687 28.689c0 12.45 8.023 22.969 19.125 26.928v20.885c0 26.363 21.449 47.812 47.812 47.812h124.313v5.585c0 7.372-1.75 14.773-5.049 21.372l-5.642 11.293h-153.631c-3.959-11.102-14.478-19.125-26.928-19.125-15.816 0-28.688 12.871-28.688 28.688 0 15.816 12.872 28.688 28.688 28.688 12.45 0 22.969-8.023 26.928-19.125h144.068l-19.125 38.25h-84.934c-26.364 0-47.812 21.448-47.812 47.812v20.885c-11.102 3.958-19.125 14.477-19.125 26.927 0 15.816 12.871 28.688 28.688 28.688s28.688-12.87 28.688-28.688c0-12.45-8.023-22.969-19.125-26.928v-20.885c0-15.816 12.871-28.688 28.688-28.688h75.372l-23.285 46.56c-2.792 5.596-4.274 11.857-4.274 18.121 0 22.338 18.169 40.508 40.507 40.508h224.986c22.338 0 40.507-18.17 40.507-40.508 0-6.254-1.482-12.525-4.274-18.121l-23.284-46.56h75.372c15.815 0 28.688 12.871 28.688 28.688v20.885c-11.102 3.959-19.125 14.478-19.125 26.928 0 15.816 12.871 28.688 28.688 28.688 15.816 0 28.688-12.87 28.688-28.688 0-12.45-8.023-22.969-19.125-26.928v-20.885c0-26.364-21.448-47.812-47.812-47.812h-84.936l-19.125-38.25h144.069c3.959 11.102 14.478 19.125 26.928 19.125 15.816 0 28.688-12.871 28.688-28.688s-12.87-28.688-28.688-28.688c-12.45 0-22.969 8.023-26.928 19.125h-153.636l-5.643-11.293c-3.299-6.599-5.049-14-5.049-21.372v-5.584h124.312c26.364 0 47.812-21.449 47.812-47.812v-20.883c11.102-3.96 19.125-14.479 19.125-26.929 0-15.816-12.871-28.688-28.688-28.688-15.816 0-28.688 12.871-28.688 28.688 0 12.45 8.022 22.969 19.125 26.929v20.883c0 15.816-12.871 28.688-28.688 28.688h-124.308v-57.376h19.125v-57.375h-38.25v-143.437h47.812v76.5zm-420.75 28.687h-153v-133.875h153zm-114.75 66.937c5.269 0 9.562 4.284 9.562 9.562s-4.293 9.562-9.562 9.562-9.562-4.283-9.562-9.562c0-5.278 4.292-9.562 9.562-9.562zm-28.688 162.563c-5.269 0-9.562-4.284-9.562-9.562 0-5.277 4.293-9.562 9.562-9.562s9.562 4.284 9.562 9.562-4.293 9.562-9.562 9.562zm28.688 143.437c-5.269 0-9.562-4.284-9.562-9.562s4.293-9.562 9.562-9.562 9.562 4.284 9.562 9.562-4.293 9.562-9.562 9.562zm478.124 0c-5.27 0-9.562-4.284-9.562-9.562s4.294-9.562 9.562-9.562 9.562 4.284 9.562 9.562-4.293 9.562-9.562 9.562zm28.688-162.562c5.269 0 9.562 4.284 9.562 9.562 0 5.277-4.295 9.562-9.562 9.562s-9.562-4.284-9.562-9.562 4.293-9.562 9.562-9.562zm-28.688-143.438c5.269 0 9.562 4.284 9.562 9.562s-4.294 9.562-9.562 9.562c-5.269 0-9.562-4.283-9.562-9.562 0-5.278 4.294-9.562 9.562-9.562zm-105.187 284.619c0 11.791-9.591 21.383-21.382 21.383h-224.986c-11.791 0-21.382-9.592-21.382-21.383 0-3.299.784-6.606 2.257-9.562l65.646-131.293c28.831 1.521 47.095 9.142 66.229 17.203 22.156 9.343 45.212 18.876 84.523 20.405l46.837 93.675c1.474 2.953 2.258 6.273 2.258 9.572zm-57.375-275.056h-38.25v19.125h19.125v82.085c0 10.337 2.438 20.684 7.066 29.931l10.462 20.922c-29.414-2.515-47.966-10.174-67.215-18.282-18.628-7.852-37.906-15.854-66.681-18.245 1.033-4.705 1.616-9.516 1.616-14.324v-82.087h76.5v-19.125h-95.623v-19.125h153zm47.812-258.187h153v133.875h-153z"/><path d="m449.438 61.312h114.75v19.125h-114.75z"/><path d="m449.438 99.562h114.75v19.125h-114.75z"/><path d="m449.438 137.812h76.5v19.125h-76.5z"/><path d="m47.812 109.125h114.75v19.125h-114.75z"/><path d="m47.812 147.375h114.75v19.125h-114.75z"/><path d="m47.812 185.625h76.5v19.125h-76.5z"/><path d="m143.438 185.625h19.125v19.125h-19.125z"/><path d="m545.062 137.812h19.125v19.125h-19.125z"/></g></svg>