<svg enable-background="new 0 0 612 592.875" height="592.875" viewBox="0 0 612 592.875" width="612" xmlns="http://www.w3.org/2000/svg"><g fill="#787b7e"><path d="m583.312 32.625h-554.624c-15.844 0-28.688 12.844-28.688 28.687v420.75c0 5.28 4.281 9.562 9.562 9.562h217.834l-15.3 76.5h-20.846c-5.281 0-9.562 4.281-9.562 9.562v28.688h-19.125v19.126h286.875v-19.125h-19.125v-28.688c0-5.281-4.28-9.562-9.562-9.562h-20.847l-15.301-76.5h217.834c5.281 0 9.562-4.281 9.562-9.562v-420.751c.001-15.843-12.843-28.687-28.687-28.687zm-191.25 554.625h19.125v19.125h-210.375v-19.125zm-160.458-19.125 15.3-76.5h118.193l15.301 76.5zm361.271-95.625h-573.75v-86.062h573.75zm-525.937-105.188v-267.75h478.125v267.75zm525.937 0h-28.688v-277.312c0-5.281-4.281-9.562-9.562-9.562h-497.25c-5.281 0-9.562 4.281-9.562 9.562v277.312h-28.688v-306c0-5.281 4.281-9.562 9.562-9.562h554.625c5.28 0 9.562 4.281 9.562 9.562z"/><path d="m306 453.375c15.844 0 28.688-12.844 28.688-28.688s-12.844-28.687-28.688-28.687-28.688 12.844-28.688 28.688 12.844 28.687 28.688 28.687zm0-38.25c5.281 0 9.562 4.281 9.562 9.562 0 5.28-4.281 9.562-9.562 9.562s-9.562-4.281-9.562-9.562 4.281-9.562 9.562-9.562z"/><path d="m506.812 243c-13.084-.193-25.396-6.227-33.564-16.447-21.724-25.825-60.27-29.15-86.095-7.427-2.686 2.258-5.169 4.743-7.428 7.427-14.428 18.484-41.107 21.772-59.593 7.344-2.739-2.138-5.206-4.605-7.345-7.344-21.724-25.825-60.27-29.15-86.095-7.427-2.684 2.258-5.168 4.743-7.426 7.427-14.342 18.484-40.953 21.842-59.438 7.5-2.804-2.176-5.324-4.696-7.5-7.5-11.763-13.821-28.994-21.79-47.143-21.803v19.125c13.086.18 25.404 6.215 33.564 16.447 21.724 25.825 60.27 29.15 86.095 7.427 2.684-2.258 5.169-4.743 7.426-7.427 14.342-18.484 40.953-21.842 59.438-7.5 2.805 2.176 5.324 4.696 7.5 7.5 21.724 25.825 60.27 29.15 86.095 7.427 2.685-2.258 5.169-4.743 7.427-7.427 14.429-18.484 41.108-21.772 59.594-7.344 2.739 2.138 5.206 4.605 7.344 7.344 11.764 13.821 28.995 21.79 47.145 21.803v-19.125z"/><path d="m267.75 185.625c15.844 0 28.688-12.844 28.688-28.688s-12.844-28.688-28.688-28.688-28.688 12.844-28.688 28.688 12.844 28.688 28.688 28.688zm0-38.25c5.281 0 9.562 4.281 9.562 9.562s-4.281 9.562-9.562 9.562-9.562-4.281-9.562-9.562 4.281-9.562 9.562-9.562z"/><path d="m344.25 281.25c-15.844 0-28.688 12.844-28.688 28.688 0 15.845 12.844 28.688 28.688 28.688s28.688-12.844 28.688-28.688-12.844-28.688-28.688-28.688zm0 38.25c-5.281 0-9.562-4.281-9.562-9.562 0-5.28 4.281-9.562 9.562-9.562s9.562 4.281 9.562 9.562-4.281 9.562-9.562 9.562z"/><path d="m315.562 128.25h76.5v19.125h-76.5z"/><path d="m219.938 319.5h76.5v19.125h-76.5z"/><path d="m200.812 281.25h95.625v19.125h-95.625z"/><path d="m315.562 166.5h95.625v19.125h-95.625z"/><path d="m105.188 137.812h28.688v-19.125h-38.25c-5.281 0-9.562 4.281-9.562 9.562v38.25h19.125z"/><path d="m506.812 329.062h-28.688v19.125h38.25c5.281 0 9.562-4.281 9.562-9.562v-38.25h-19.125v28.688h.001z"/></g></svg>