<svg viewBox="0 0 26.458333 33.0729175" xmlns="http://www.w3.org/2000/svg"><path d="m15.275236 278.4917c.406092.15715.780942.37708 1.155795.62848h7.215909v3.33083h1.843024l-2.873868 4.305-2.873867-4.305h1.843022v-1.25692h-3.37367c.374853.75418.593517 1.60259.593517 2.51386 0 1.00554-.281126 1.97965-.749706 2.79666v2.76527h4.123376v-1.82255l4.279565 2.85949-4.279565 2.89095v-1.82255h-4.123376v1.31976h1.811787l-2.873867 4.30499-2.842632-4.30499h1.811787v-4.11643c-1.155795.65989-2.561492.87985-3.873476.59703v6.00184h-7.809423v1.82255l-4.279565-2.89093 4.279565-2.85952v1.82255h5.747737v-4.77634c-.406092-.28288-.780942-.62845-1.09332-1.03697h-7.090956v-3.33085h-1.843026l2.87387-4.30499 2.873867 4.30499h-1.843025v1.25694h3.935951c-.124963-.47136-.187428-.97414-.187428-1.4769 0-.87985.21866-1.69685.562277-2.451h-2.623967v-6.2218h-1.311984v1.85395l-4.279564-2.89092 4.279564-2.85953v1.82255h3.373674v6.22181h2.28035c.905894-.69131 2.061689-1.06837 3.279959-1.06837v-5.71906h8.965218v-1.85394l4.279563 2.89092-4.279563 2.89092v-1.85395h-6.903532zm-4.560703 3.48797c0 .34566.312378.62848.655991.62848.312378 0 .531042-.18859.655992-.56562.218661-.69131.499803-1.13124 1.249509-1.13124.593517 0 1.093319.37706 1.093319.97411 0 .50279-.468566.84845-.81218 1.13124-.624753.56561-1.062081.9741-1.062081 1.85398 0 .4085.218661.69132.624753.69132.655992 0 .531042-.59705.780942-1.03697.281126-.56563.749705-.78558 1.280747-1.31981.343614-.37706.562278-.81697.562278-1.31976 0-1.82255-2.1554-2.35673-3.592334-1.79112-.812181.31432-1.436936.9427-1.436936 1.88539zm2.467778 5.56191c.437328 0 .749706-.31432.749706-.75415 0-.43991-.343614-.75417-.749706-.75417-.437328 0-.780942.31432-.780942.75417 0 .47133.312378.75415.780942.75415z" fill="#787b7e" fill-rule="evenodd" transform="translate(0 -270.54164)"/></svg>