<?xml version="1.0" encoding="UTF-8" standalone="no"?>
<svg
   xmlns:dc="http://purl.org/dc/elements/1.1/"
   xmlns:cc="http://creativecommons.org/ns#"
   xmlns:rdf="http://www.w3.org/1999/02/22-rdf-syntax-ns#"
   xmlns:svg="http://www.w3.org/2000/svg"
   xmlns="http://www.w3.org/2000/svg"
   xmlns:sodipodi="http://sodipodi.sourceforge.net/DTD/sodipodi-0.dtd"
   xmlns:inkscape="http://www.inkscape.org/namespaces/inkscape"
   version="1.1"
   x="0px"
   y="0px"
   viewBox="0 0 90 89.999999"
   xml:space="preserve"
   id="svg10"
   sodipodi:docname="noun_1349710_cc.svg"
   width="90"
   height="90"
   inkscape:version="0.92.2 5c3e80d, 2017-08-06"><metadata
     id="metadata16"><rdf:RDF><cc:Work
         rdf:about=""><dc:format>image/svg+xml</dc:format><dc:type
           rdf:resource="http://purl.org/dc/dcmitype/StillImage" /><dc:title></dc:title></cc:Work></rdf:RDF></metadata><defs
     id="defs14" /><sodipodi:namedview
     pagecolor="#ffffff"
     bordercolor="#666666"
     borderopacity="1"
     objecttolerance="10"
     gridtolerance="10"
     guidetolerance="10"
     inkscape:pageopacity="0"
     inkscape:pageshadow="2"
     inkscape:window-width="985"
     inkscape:window-height="494"
     id="namedview12"
     showgrid="false"
     fit-margin-top="0"
     fit-margin-left="0"
     fit-margin-right="0"
     fit-margin-bottom="0"
     inkscape:zoom="2.1378506"
     inkscape:cx="76.842859"
     inkscape:cy="33.117375"
     inkscape:window-x="243"
     inkscape:window-y="181"
     inkscape:window-maximized="0"
     inkscape:current-layer="svg10" /><g
     id="g4"
     transform="translate(19.645852,2.154764)"><path
       style="fill:#010002"
       d="M 52.037,75.59 33.683,50.73 c 0,0 8.065,-12.202 12.346,-18.799 C 52.315,22.696 47.881,11.679 39.874,4.849 30.189,-3.411 15.139,-0.278 6.593,7.958 -4.758,18.897 2.14,31.481 5.681,36.462 5.697,36.485 17.157,51.988 17.192,52.016 8.96,63.441 0.281,75.402 0.14,75.595 c -0.182,0.252 -0.187,0.592 -0.012,0.85 L 7.994,87.99 c 0.137,0.203 0.366,0.323 0.61,0.323 0.002,0 0.004,0 0.006,0 0.247,-0.002 0.476,-0.127 0.611,-0.333 L 26.44,61.76 44.14,87.492 c 0.139,0.201 0.366,0.319 0.608,0.319 0.008,0 0.015,0 0.021,0 0.251,-0.007 0.48,-0.142 0.61,-0.354 l 6.693,-11.046 c 0.157,-0.257 0.143,-0.58 -0.035,-0.821 z M 8.593,86.246 1.641,76.042 c 2.725,-3.755 22.814,-31.459 29.322,-40.756 4.65,-6.644 7.426,-12.274 3.945,-18.498 -2.581,-4.615 -13.925,-9.284 -20.347,0.957 -2.315,3.692 -1.552,8.935 0.969,12.522 3.262,4.643 9.123,11.313 9.142,11.333 -2,2.797 -4.272,5.96 -6.605,9.201 L 6.86,35.571 C -0.599,25.047 1.12,14.972 7.59,9.046 15.871,1.464 29.852,-1.758 38.915,5.972 44.941,11.111 50.311,21.429 44.801,31.109 42.292,34.827 8.593,86.246 8.593,86.246 Z M 25.552,40.368 c -0.984,-1.129 -5.913,-6.823 -8.813,-10.95 -2.219,-3.157 -2.955,-7.809 -0.855,-11.016 4.994,-7.628 14.805,-5.202 17.378,-0.82 2.836,4.826 0.823,10.668 -3.509,16.858 -1.075,1.536 -2.523,3.576 -4.201,5.928 z M 44.71,85.713 27.315,60.427 32.819,52.046 50.554,76.068 Z"
       id="path2"
       inkscape:connector-curvature="0" /></g></svg>