<?xml version="1.0" encoding="UTF-8" standalone="no"?>
<svg
   xmlns:dc="http://purl.org/dc/elements/1.1/"
   xmlns:cc="http://creativecommons.org/ns#"
   xmlns:rdf="http://www.w3.org/1999/02/22-rdf-syntax-ns#"
   xmlns:svg="http://www.w3.org/2000/svg"
   xmlns="http://www.w3.org/2000/svg"
   xmlns:sodipodi="http://sodipodi.sourceforge.net/DTD/sodipodi-0.dtd"
   xmlns:inkscape="http://www.inkscape.org/namespaces/inkscape"
   data-name="Layer 1"
   viewBox="0 0 120 89.000267"
   x="0px"
   y="0px"
   version="1.1"
   id="svg14"
   sodipodi:docname="noun_1231043_cc.svg"
   width="120"
   height="89.000267"
   inkscape:version="0.92.2 5c3e80d, 2017-08-06"
   inkscape:export-filename="/Users/lwaldron/git/waldronlab.github.io/assets/img/noun_1231043_cc.png"
   inkscape:export-xdpi="62.389999"
   inkscape:export-ydpi="62.389999">
  <metadata
     id="metadata20">
    <rdf:RDF>
      <cc:Work
         rdf:about="">
        <dc:format>image/svg+xml</dc:format>
        <dc:type
           rdf:resource="http://purl.org/dc/dcmitype/StillImage" />
        <dc:title>96all</dc:title>
      </cc:Work>
    </rdf:RDF>
  </metadata>
  <defs
     id="defs18" />
  <sodipodi:namedview
     pagecolor="#ffffff"
     bordercolor="#666666"
     borderopacity="1"
     objecttolerance="10"
     gridtolerance="10"
     guidetolerance="10"
     inkscape:pageopacity="0"
     inkscape:pageshadow="2"
     inkscape:window-width="1124"
     inkscape:window-height="617"
     id="namedview16"
     showgrid="false"
     fit-margin-top="0"
     fit-margin-left="0"
     fit-margin-right="0"
     fit-margin-bottom="0"
     inkscape:zoom="3.776"
     inkscape:cx="41.704992"
     inkscape:cy="54.879982"
     inkscape:window-x="0"
     inkscape:window-y="0"
     inkscape:window-maximized="0"
     inkscape:current-layer="svg14" />
  <title
     id="title2">96all</title>
  <path
     d="m 90.677291,13.506359 h -57.7 a 15,12.723655 0 0 0 -15,12.723655 v 60.225298 a 3,2.5447309 0 0 0 5.33,1.603181 l 12,-12.545524 h 55.37 A 15,12.723655 0 0 0 105.67729,62.789315 V 26.230014 A 15,12.723655 0 0 0 90.677291,13.506359 Z m 9,49.282956 a 9,7.6341928 0 0 1 -9,7.634192 h -55.85 a 5,4.2412182 0 0 0 -3.88,1.569251 l -7,7.286413 V 26.230014 a 9,7.6341928 0 0 1 9,-7.634193 h 57.7 a 9,7.6341928 0 0 1 9,7.634193 z"
     id="path4"
     inkscape:connector-curvature="0"
     style="stroke-width:0.92100143" />
  <path
     d="m 61.827291,38.673748 a 3,2.5447309 0 0 0 -3,2.544731 v 17.219346 a 3,2.5447309 0 0 0 6,0 V 41.218479 a 3,2.5447309 0 0 0 -3,-2.544731 z"
     id="path6"
     inkscape:connector-curvature="0"
     style="stroke-width:0.92100143" />
  <path
     d="m 61.827291,28.494824 a 3,2.5447309 0 0 0 -3,2.544731 v 1.95096 a 3,2.5447309 0 0 0 6,0 v -1.95096 a 3,2.5447309 0 0 0 -3,-2.544731 z"
     id="path8"
     inkscape:connector-curvature="0"
     style="stroke-width:0.92100143" />
</svg>
