<svg enable-background="new 48.137 150.894 515.784 337.09" height="337.09" viewBox="48.137 150.894 515.784 337.09" width="515.784" xmlns="http://www.w3.org/2000/svg"><path d="m306 487.984c-8.812 0-23.194-11.75-23.194-21.055v-6.67c0-16.523 0-30.6-5.63-40.699-24.978-47.169-43.11-97.656-53.856-149.938-1.652-16.83-6.426-19.156-16.953-24.48-11.02-4.918-21.104-11.71-29.804-20.074-32.559-30.6-51.286-46.328-63.158-46.328-6.12 0-11.689 4.406-19.768 16.157-2.999 4.405-8.507 24.479-2.02 36.72 3.856 7.344 11.506 11.077 22.644 11.077 40.637 0 59.548 15.056 59.548 47.308 0 20.136-19.951 35.924-45.472 35.924-14.448-.146-28.479-4.858-40.086-13.463-23.011-16.586-39.841-52.877-40.025-86.293-1.183-24.301 9.607-47.643 28.886-62.484 9.412-7.77 21.1-12.261 33.293-12.791 19.584 0 35.251 13.464 53.428 29.131 11.318 10.312 23.617 19.495 36.72 27.417 8.337 5.124 17.88 7.953 27.663 8.201 13.586 0 24.97-6.12 37.027-12.853 12.057-6.731 25.152-13.646 40.758-13.646s28.396 6.977 40.76 13.77c12.361 6.793 23.439 12.853 37.025 12.853 9.783-.25 19.324-3.08 27.662-8.201 13.105-7.942 25.404-17.146 36.721-27.479 18.359-15.605 33.844-29.13 53.428-29.13 12.193.53 23.881 5.021 33.293 12.791 19.303 14.83 30.117 38.171 28.947 62.485 0 33.415-17.074 69.707-40.025 86.292-11.666 8.676-25.791 13.412-40.33 13.525-25.459 0-45.471-15.791-45.471-35.924 0-32.252 18.91-47.309 59.547-47.309 11.139 0 18.789-3.732 22.645-11.076 6.486-12.24 1.041-32.375-1.959-36.721-8.018-11.873-13.34-16.279-19.645-16.279-11.873 0-30.602 15.729-63.16 46.635-8.68 8.357-18.742 15.149-29.742 20.074-10.465 5.018-15.301 7.344-16.891 23.989-10.701 52.306-28.814 102.815-53.795 150.001-6.121 10.037-6.121 24.48-5.691 40.76v6.793c-.065 9.24-14.508 20.99-23.32 20.99zm-192.596-315.363c14.076 0 32.191 14.932 67.32 48.287 8.24 7.948 17.81 14.391 28.274 19.032 11.077 5.325 18.36 8.813 20.379 28.886 10.635 51.51 28.52 101.25 53.123 147.736 6.609 11.199 6.549 26.256 6.119 43.697v6.732c0 5.689 11.506 14.932 17.075 14.932s17.442-9.424 17.442-14.932v-6.732c0-17.381 0-32.436 6.486-43.758 24.617-46.496 42.484-96.263 53.061-147.799 1.959-19.89 9.242-23.377 20.318-28.703 10.439-4.629 19.988-11.051 28.213-18.972 35.191-33.415 53.307-48.286 67.32-48.286 9.914 0 16.83 7.221 24.787 18.85 3.426 4.957 10.588 27.418 2.324 42.84-3.428 6.548-11.139 14.382-28.092 14.382-36.719 0-53.426 12.729-53.426 41.188 0 16.707 17.258 29.805 39.352 29.805 13.229-.086 26.086-4.373 36.721-12.24 21.541-15.482 37.332-49.693 37.516-81.335 1.123-22.345-8.75-43.828-26.438-57.528-8.373-6.991-18.789-11.072-29.684-11.628-17.318 0-32.189 12.792-49.449 27.6-11.574 10.592-24.16 20.021-37.576 28.152-9.227 5.651-19.783 8.756-30.602 8.998-15.178 0-27.785-6.916-39.963-13.587-12.18-6.67-23.99-12.974-38.006-12.974-14.015 0-25.582 6.119-37.76 13.035-12.179 6.916-24.48 13.586-39.964 13.586-10.816-.24-21.375-3.344-30.6-8.995-13.432-8.091-26.038-17.479-37.638-28.03-17.258-14.811-32.13-27.662-49.45-27.662-10.893.556-21.31 4.637-29.682 11.628-17.697 13.693-27.572 35.18-26.438 57.528 0 31.641 15.974 65.852 37.516 81.396 10.634 7.867 23.493 12.153 36.72 12.24 22.032 0 39.352-13.098 39.352-29.806 0-28.458-16.463-41.188-53.428-41.188-16.952 0-24.48-7.832-28.091-14.381-8.262-15.668-1.04-38.128 2.387-42.841 7.652-11.871 14.628-19.153 24.482-19.153z" fill="#787b7e"/></svg>