<svg enable-background="new 0.219 28.054 611.562 582.892" height="582.892" viewBox=".219 28.054 611.562 582.892" width="611.562" xmlns="http://www.w3.org/2000/svg"><g fill="#787b7e"><path d="m306 439c-28.032 0-54.422-10.955-74.318-30.852-19.887-19.896-30.842-46.286-30.851-74.318 0-28.033 10.955-54.433 30.851-74.323 34.63-34.635 87.839-40.924 129.403-15.263 2.24 1.385 2.939 4.33 1.549 6.574-1.381 2.24-4.318 2.939-6.568 1.554-37.775-23.301-86.141-17.604-117.626 13.891-18.085 18.09-28.052 42.085-28.052 67.566.01 25.476 9.967 49.478 28.052 67.561 18.095 18.086 42.086 28.053 67.562 28.053h.01c25.483 0 49.478-9.967 67.569-28.053 31.495-31.484 37.196-79.842 13.877-117.612-1.381-2.245-.691-5.189 1.559-6.574 2.248-1.39 5.188-.696 6.569 1.554 25.662 41.559 19.392 94.768-15.249 129.39-19.896 19.897-46.294 30.852-74.327 30.852 0 0 0 0-.01 0z"/><path d="m306.01 405.424c-18.347 0-36.683-6.979-50.643-20.94-27.92-27.938-27.92-73.38 0-101.301 22.919-22.923 58.481-27.621 86.458-11.422 2.287 1.32 3.069 4.246 1.746 6.528-1.326 2.277-4.247 3.061-6.533 1.74-24.234-14.039-55.047-9.957-74.915 9.911-24.198 24.195-24.198 63.581 0 87.787 24.198 24.188 63.578 24.188 87.784 0 19.877-19.896 23.943-50.713 9.883-74.967-1.325-2.286-.551-5.206 1.735-6.531 2.295-1.316 5.207-.537 6.531 1.734 16.229 27.996 11.544 63.582-11.394 86.52-13.971 13.961-32.315 20.924-50.652 20.941z"/><path d="m306 372.017c-9.78 0-19.559-3.733-26.997-11.161-14.894-14.913-14.894-39.143 0-54.035 8.594-8.607 20.399-12.561 32.455-10.826 2.614.379 4.424 2.801 4.051 5.414-.373 2.612-2.744 4.422-5.412 4.049-9.023-1.32-17.89 1.658-24.337 8.119-11.17 11.17-11.17 29.344 0 40.523 11.17 11.16 29.339 11.143 40.509 0 6.457-6.477 9.416-15.361 8.109-24.375-.373-2.609 1.438-5.025 4.041-5.407 2.622-.327 5.04 1.437 5.413 4.05 1.743 12.016-2.193 23.848-10.808 32.489-7.456 7.427-17.236 11.16-27.024 11.16z"/><path d="m368.112 591.834h-124.224c-1.27 0-2.483-.504-3.378-1.4l-19.112-19.109c-.896-.896-1.399-2.109-1.399-3.379v-66.891c0-2.648 2.137-4.775 4.777-4.775h162.447c2.643 0 4.777 2.127 4.777 4.775v66.891c0 1.27-.504 2.48-1.399 3.379l-19.109 19.109c-.898.897-2.112 1.4-3.38 1.4zm-122.246-9.556h120.268l16.312-16.311v-60.135h-152.892v60.135z"/><path d="m215.221 534.5c-2.528 0-4.638-1.979-4.768-4.535-.14-2.631 1.885-4.871 4.516-5.021l181.56-9.557c2.613-.336 4.88 1.887 5.02 4.52.142 2.631-1.884 4.889-4.516 5.018l-181.558 9.557c-.087.018-.17.018-.254.018z"/><path d="m215.221 563.168c-2.528 0-4.638-1.979-4.768-4.535-.14-2.633 1.885-4.871 4.516-5.021l181.56-9.555c2.613-.318 4.88 1.885 5.02 4.516.142 2.631-1.884 4.891-4.516 5.021l-181.558 9.555c-.087.019-.17.019-.254.019z"/><path d="m387.223 505.834h-162.447c-2.641 0-4.778-2.146-4.778-4.779v-29.617c-47.918-29.957-76.445-81.188-76.445-137.607 0-89.583 72.871-162.46 162.446-162.46 89.574 0 162.445 72.876 162.445 162.46 0 56.42-28.526 107.67-76.445 137.607v29.617c.001 2.633-2.135 4.779-4.776 4.779zm-157.669-9.556h152.892v-27.51c0-1.68.877-3.229 2.305-4.107 46.426-27.977 74.14-76.893 74.14-130.83 0-84.312-68.588-152.905-152.89-152.905-84.303 0-152.891 68.593-152.891 152.905 0 53.938 27.716 102.854 74.14 130.85 1.427.859 2.305 2.408 2.305 4.088z"/><path d="m306 610.946c-35.984 0-46.828-20.867-47.274-21.764-1.176-2.352-.224-5.225 2.137-6.398 2.352-1.195 5.207-.244 6.392 2.107.42.783 9.117 16.5 38.746 16.5 29.739 0 38.39-15.846 38.745-16.518 1.222-2.314 4.087-3.248 6.42-2.053 2.333 1.193 3.275 4.029 2.109 6.363-.449.896-11.292 21.763-47.275 21.763z"/><path d="m100.562 338.608h-95.565c-2.642 0-4.778-2.146-4.778-4.777 0-2.65 2.136-4.783 4.778-4.783h95.565c2.642 0 4.779 2.133 4.779 4.783-.002 2.632-2.138 4.777-4.779 4.777z"/><path d="m607.004 338.608h-95.558c-2.641 0-4.777-2.146-4.777-4.777 0-2.65 2.138-4.783 4.777-4.783h95.558c2.641 0 4.777 2.133 4.777 4.783 0 2.632-2.136 4.777-4.777 4.777z"/><path d="m27.916 453.799c-1.875 0-3.659-1.121-4.415-2.949-1.008-2.443.149-5.244 2.585-6.252l88.287-36.58c2.426-1.01 5.235.148 6.243 2.594 1.007 2.428-.149 5.227-2.584 6.232l-88.288 36.582c-.598.262-1.224.373-1.828.373z"/><path d="m495.808 259.975c-1.876 0-3.658-1.11-4.415-2.949-1.007-2.44.149-5.235 2.586-6.243l88.278-36.562c2.436-1.003 5.234.149 6.243 2.585 1.008 2.44-.149 5.234-2.584 6.243l-88.278 36.562c-.6.248-1.225.364-1.83.364z"/><path d="m93.162 551.448c-1.223 0-2.446-.469-3.378-1.4-1.867-1.867-1.867-4.891 0-6.756l67.571-67.58c1.867-1.867 4.89-1.867 6.756 0s1.866 4.891 0 6.756l-67.571 67.58c-.934.931-2.156 1.4-3.378 1.4z"/><path d="m384.628 148.796c-.616 0-1.23-.116-1.828-.364-2.436-1.007-3.593-3.802-2.585-6.243l36.562-88.279c1.008-2.439 3.814-3.597 6.242-2.584 2.438 1.008 3.595 3.802 2.587 6.243l-36.562 88.279c-.767 1.839-2.548 2.948-4.416 2.948z"/><path d="m306.01 133.157c-2.642 0-4.779-2.137-4.779-4.778v-95.547c0-2.641 2.138-4.778 4.779-4.778 2.642 0 4.777 2.137 4.777 4.778v95.548c0 2.64-2.137 4.777-4.777 4.777z"/><path d="m227.389 148.796c-1.875 0-3.659-1.111-4.415-2.949l-36.561-88.279c-1.007-2.441.149-5.235 2.584-6.243 2.417-1.008 5.235.145 6.243 2.584l36.561 88.278c1.008 2.441-.149 5.235-2.584 6.243-.595.25-1.221.366-1.828.366z"/><path d="m518.837 551.448c-1.222 0-2.444-.469-3.378-1.4l-67.579-67.58c-1.867-1.867-1.867-4.891 0-6.756 1.867-1.867 4.891-1.867 6.756 0l67.579 67.58c1.867 1.867 1.867 4.891 0 6.756-.933.931-2.154 1.4-3.378 1.4z"/><path d="m160.742 193.328c-1.223 0-2.444-.466-3.378-1.4l-67.562-67.562c-1.867-1.866-1.867-4.89 0-6.756 1.867-1.867 4.89-1.867 6.756 0l67.562 67.562c1.866 1.867 1.866 4.89 0 6.756-.933.933-2.155 1.4-3.378 1.4z"/><path d="m584.085 453.799c-.617 0-1.231-.111-1.829-.373l-88.297-36.582c-2.436-1.006-3.593-3.807-2.585-6.232 1.009-2.443 3.816-3.619 6.244-2.594l88.297 36.58c2.435 1.01 3.592 3.809 2.584 6.252-.767 1.83-2.547 2.949-4.414 2.949z"/><path d="m116.212 259.975c-.617 0-1.232-.116-1.829-.363l-88.279-36.562c-2.436-1.008-3.593-3.804-2.585-6.243 1.008-2.436 3.816-3.593 6.243-2.585l88.278 36.562c2.435 1.008 3.592 3.804 2.584 6.243-.764 1.837-2.546 2.948-4.412 2.948z"/><path d="m306.027 338.608c-1.223 0-2.445-.467-3.378-1.4-1.867-1.867-1.867-4.89 0-6.756l214.975-214.988c1.867-1.867 4.89-1.867 6.756 0 1.867 1.866 1.867 4.89 0 6.756l-214.976 214.99c-.932.932-2.154 1.398-3.377 1.398z"/><path d="m460.094 184.5c-2.641 0-4.775-2.137-4.775-4.772 0-2.641 2.136-4.783 4.767-4.783l25.065-.019 39.418-39.421-13.971-2.398c-2.604-.443-4.35-2.915-3.9-5.515.447-2.599 2.93-4.353 5.515-3.9l23.068 3.957c1.765.299 3.21 1.559 3.752 3.262.541 1.703.083 3.561-1.177 4.824l-47.349 47.349c-.896.896-2.108 1.4-3.378 1.4z"/><path d="m460.094 184.5c-2.641 0-4.775-2.142-4.775-4.777l.01-27.044c0-1.27.503-2.483 1.397-3.378l47.275-47.275c1.26-1.265 3.126-1.713 4.814-1.175 1.698.536 2.959 1.974 3.266 3.727l4.031 22.993c.458 2.6-1.278 5.076-3.884 5.534-2.584.429-5.074-1.283-5.532-3.882l-2.444-13.941-39.371 39.375-.01 25.063c.002 2.643-2.145 4.78-4.777 4.78z"/></g></svg>