<svg enable-background="new -301.99 137.062 700 650" height="650" viewBox="-301.99 137.062 700 650" width="700" xmlns="http://www.w3.org/2000/svg"><path d="m286.72 491.155c-4.08-33.32-9.521-55.08-15.64-78.2-5.44-21.76-11.561-46.92-17.681-85.68-5.44-35.36-.68-61.2 4.08-81.601 3.399-17.68 6.8-33.32.681-48.28-4.761-10.88-14.96-13.6-23.121-16.32-4.76-1.36-9.52-2.72-12.92-5.44-23.8-19.04-52.36-22.44-78.88-10.2-19.04 8.84-29.92 19.72-33.32 34-2.04 8.16-.68 15.64 1.36 21.08-10.88 8.84-22.44 23.12-18.36 41.48 4.08 21.76 41.48 42.16 61.2 51-2.04 22.44-9.52 87.72-24.48 140.08-11.56 39.439-12.24 70.04-9.52 90.439-33.32-22.439-93.16-55.761-160.48-61.199-95.2-7.48-142.12 35.358-144.16 36.72-4.76 4.08-4.76 11.56-.68 16.32s11.56 4.76 16.32.68c.68-.68 41.48-37.4 126.48-30.601 93.16 7.479 174.08 74.801 174.76 75.479l17.68-14.28c0-.68-19.04-36.72 2.04-108.119 19.04-65.96 25.84-149.601 25.84-152.999l.68-8.161-7.48-3.4c-24.48-10.88-53.72-28.56-55.08-38.08-1.36-6.8 3.4-12.24 8.16-16.32 7.48 5.44 19.04 12.24 30.6 12.24h.68c5.44 0 17.68-2.04 22.44-20.399 2.04-6.8 2.04-13.601 2.04-14.96 0-6.12-5.44-11.56-11.56-11.56-6.12 0-11.56 5.44-11.56 12.24 0 4.08-1.36 10.2-1.36 10.88-4.08 0-8.84-2.72-14.28-5.44l-5.44-6.8s-4.08-6.12-2.72-12.24 8.84-12.92 20.4-18.36c23.8-10.88 42.84-2.04 54.4 7.48 6.8 5.44 14.28 7.48 20.4 9.52 2.72.68 7.48 2.04 8.16 3.4 3.4 8.16 1.36 19.04-2.04 34-4.08 21.08-10.2 50.32-4.08 90.44 6.12 39.439 12.92 65.279 18.36 87.72 6.12 23.12 10.88 43.521 14.96 75.48 7.48 57.12 9.52 88.399 2.04 112.2-4.08 12.239-5.44 25.159-6.8 38.079-2.041 19.04-4.08 36.04-14.28 46.921-5.44 6.119-16.32 8.159-26.52 9.52-7.48 1.36-15.64 2.72-22.44 6.12-40.12 18.36-85.68 14.96-118.32 12.24-23.8-2.04-41.48-3.4-52.36 3.399-66.64 42.84-173.4 10.199-204.68-9.521-5.44-3.399-12.92-2.04-16.32 3.399s-2.04 12.92 3.4 16.319c23.12 14.28 78.2 34 135.32 34 33.32 0 66.64-6.8 95.2-24.479 4.08-2.72 23.12-1.359 38.08 0 35.36 2.721 84.32 6.801 129.88-14.279 4.08-2.04 10.88-3.4 17-4.08 13.6-2.72 28.561-5.44 39.441-16.32 16.319-16.318 19.039-38.76 21.079-60.52 1.36-11.562 2.72-23.12 5.44-33.32 8.161-27.197 6.12-61.197-2.039-121.717z" fill="#787b7e"/></svg>