<svg enable-background="new 6.121 98.978 599.337 439.233" height="439.233" viewBox="6.121 98.978 599.337 439.233" width="599.337" xmlns="http://www.w3.org/2000/svg"><g fill="#787b7e"><path d="m366.423 255.142 40.605 40.301c3.881 3.824 10.109 3.807 13.959-.037l40.453-40.454 40.447-40.453c25.992-25.998 26.893-67.877.66-93.942l-.545-.582c-.104-.11-.207-.208-.311-.312-12.105-12.001-27.535-18.188-43.232-18.831-15.703-.643-31.672 2.968-44.822 13.146-26.377-20.22-63.936-20.918-88.055 3.562h-1.225v2.595c-24.48 26.139-25.429 68.66.826 94.713z"/><path d="m603.144 372.83c-6.07-14.364-18.061-20.949-27.398-22.313-9.332-1.371-17.008 1.273-17.008 1.273-.354.109-.715.238-1.059.386l-105.473 48.96c.129-1.31.422-2.907.422-4.241 0-22.245-18.434-40.673-40.766-40.673h-87.9c-.379 0-.809-1.279-1.156-1.91-1.572-2.84-3.273-5.41-5.104-8.071-3.672-5.318-7.846-10.166-12.455-14.683-18.452-18.072-45.557-29.156-73.671-29.156l-109.176.083v-11.756c0-5.471-1.267-7.949-6.738-7.949h-49.499-49.498c-5.471 0-10.544 2.479-10.544 7.943v198.007c0 5.478 5.073 8.25 10.544 8.25h49.499 49.499c5.471 0 6.738-2.772 6.738-8.25v-19.492l201.177 66.249c.215.072 1.225.128 1.451.188 21.24 5.393 46.082 2.233 64.779-9.976l192.484-104.499c.043-.037.295-.079.332-.116l4.895-2.668c0-.019 0-.031 0-.043 12.24-9.025 22.756-28.67 15.625-45.543zm-25.605 28.354-4.639 2.626-192.242 104.456c-.25.142-.502.301-.74.466-13.035 8.758-33.299 11.677-49.15 7.698l-205.582-67.725c-.398-.128-2.785-.232-2.785-.306v-126.157l109.138-.037c22.907 0 44.199 9.015 59.033 23.556 3.709 3.635 7.473 7.602 10.417 11.867 1.469 2.137 3.042 4.339 4.297 6.616 1.555 2.81 2.697 3.446 3.537 5.397l2.643 4.939h8.703 91.689c11.859 0 20.961 10.085 20.961 21.555 0 8.366-4.943 15.912-12.18 19.131l-.924.687c-2.424.937-4.43 1.646-7.264 1.646 0 0-100.338.165-137.058.165-6.12 0-6.12 18.012 0 18.012h136.427c3.99 0 7.783.129 11.443-.937 1.316-.129 2.59-.066 3.752-.686l.27.104c.373-.151.717-.231 1.084-.392l136.795-63.366c.092-.098 3.445-1.053 7.613-.436 4.252.625 8.291 1.8 11.951 10.459 3.27 7.706.35 16.372-7.189 20.662z"/></g></svg>